<svg width="15" height="15" viewBox="0 0 15 15" fill="none" xmlns="http://www.w3.org/2000/svg">
<path d="M4.29589 10.7056C3.14277 9.88687 2.23027 8.82187 1.71464 8.14937C1.57046 7.96373 1.49219 7.73537 1.49219 7.50031C1.49219 7.26526 1.57046 7.03689 1.71464 6.85125C2.64777 5.63312 4.88652 3.125 7.50027 3.125C8.67277 3.125 9.76902 3.62938 10.7065 4.29625" stroke="#BEBEBE" stroke-linecap="round" stroke-linejoin="round"/>
<path d="M8.83125 6.17938C8.65768 6.00292 8.4509 5.86257 8.22282 5.76643C7.99474 5.67029 7.74988 5.62026 7.50237 5.61922C7.25486 5.61818 7.00959 5.66616 6.78072 5.76039C6.55184 5.85461 6.34389 5.99322 6.16885 6.16822C5.99381 6.34322 5.85515 6.55114 5.76087 6.77999C5.66659 7.00885 5.61855 7.2541 5.61953 7.50162C5.62051 7.74913 5.67049 7.994 5.76657 8.2221C5.86266 8.4502 6.00296 8.65702 6.17938 8.83062M2.5 12.5L12.5 2.5M6.25 11.69C6.65575 11.8108 7.07666 11.8731 7.5 11.875C10.1138 11.875 12.3525 9.36688 13.2856 8.14875C13.4298 7.96294 13.508 7.73443 13.5078 7.49927C13.5077 7.2641 13.4293 7.03567 13.285 6.85C12.9571 6.42218 12.6052 6.0132 12.2312 5.625" stroke="#BEBEBE" stroke-linecap="round" stroke-linejoin="round"/>
</svg>
